<svg preserveAspectRatio="none" width="100%" height="100%" overflow="visible" style="display: block;" viewBox="0 0 276 554" fill="none" xmlns="http://www.w3.org/2000/svg">
<path id="Shape" d="M231.666 0C255.511 0 274.723 19.0247 274.723 42.6436V142.36H275.377C275.722 142.36 276 142.636 276 142.979V207.054C276 207.396 275.722 207.673 275.377 207.673H274.723V511.356C274.722 534.975 255.511 554 231.666 554H44.2949C20.4503 554 1.24334 534.975 1.24316 511.356V222.327H0.623047C0.277645 222.327 0.000101125 222.051 0 221.708V182.138C0 181.795 0.277582 181.519 0.623047 181.519H1.24316V169.089H0.623047C0.277673 169.089 0.000146343 168.813 0 168.47V128.899C0 128.556 0.277582 128.28 0.623047 128.28H1.24316V109.068H0.623047C0.279079 109.068 9.96378e-05 108.791 0 108.449V88.4824C0 88.1407 0.279017 87.8633 0.623047 87.8633H1.24316V42.6436C1.2433 19.0247 20.4502 7.78757e-05 44.2949 0H231.666Z" fill="var(--fill-0, #A5B53C)"/>
</svg>
